<svg xmlns="http://www.w3.org/2000/svg" xmlns:xlink="http://www.w3.org/1999/xlink" width="1080" zoomAndPan="magnify" viewBox="0 0 810 809.999993" height="1080" preserveAspectRatio="xMidYMid meet" version="1.0"><rect x="-81" width="972" fill="#ffffff" y="-80.999999" height="971.999992" fill-opacity="1"/><rect x="-81" width="972" fill="#ffffff" y="-80.999999" height="971.999992" fill-opacity="1"/><rect x="-81" width="972" fill="#ffffff" y="-80.999999" height="971.999992" fill-opacity="1"/><rect x="-81" width="972" fill="#ffffff" y="-80.999999" height="971.999992" fill-opacity="1"/><path fill="#ffffff" d="M 587.105469 403.515625 L 580.699219 405.390625 C 574.730469 407.148438 569.441406 410.21875 565.003906 414.257812 C 564.949219 414.3125 564.855469 414.304688 564.800781 414.25 C 551.882812 399.113281 530.828125 392.113281 510.496094 398.082031 C 498.09375 401.722656 488.078125 409.570312 481.546875 419.613281 C 481.484375 419.707031 481.34375 419.699219 481.296875 419.589844 C 471.097656 395.628906 444.335938 382.5625 418.734375 390.082031 C 412.605469 391.878906 407.066406 394.707031 402.238281 398.324219 C 402.152344 398.378906 402.042969 398.339844 402.011719 398.246094 L 354.714844 237.300781 C 346.246094 208.480469 315.335938 191.945312 287.011719 202.003906 C 261.164062 211.183594 246.703125 239.066406 254.53125 265.699219 L 336.964844 546.214844 C 338.738281 552.238281 334.832031 558.464844 328.625 559.464844 C 307.898438 562.804688 269.039062 545.257812 251.617188 536.546875 C 211.96875 516.730469 185.542969 518.613281 165.722656 546.925781 C 153.445312 564.453125 160.054688 574.289062 197.140625 595.851562 C 215.539062 606.554688 231.855469 620.496094 247.84375 634.546875 C 273.226562 656.851562 309.203125 688.460938 309.203125 688.460938 C 338.464844 715.832031 384.117188 732.960938 414.605469 746.746094 C 439.03125 757.78125 459.425781 781.949219 470.917969 797.84375 C 477.289062 806.660156 488.804688 810.082031 498.984375 806.246094 L 585.777344 777.160156 L 668.398438 750.738281 C 679.980469 747.332031 686.613281 735.195312 683.214844 723.617188 C 683.214844 723.617188 683.207031 723.609375 683.207031 723.609375 L 678.699219 697.578125 C 674.667969 674.339844 675.207031 650.449219 681.183594 627.632812 C 690.480469 592.128906 675.488281 544.804688 671.671875 531.828125 L 645.132812 440.71875 C 637.019531 413.140625 611.046875 396.488281 587.105469 403.515625 " fill-opacity="1" fill-rule="nonzero"/><path fill="#ffffff" d="M 268.210938 379.328125 C 175.847656 372.203125 102.867188 294.800781 102.867188 200.675781 C 102.867188 101.867188 183.285156 21.488281 282.128906 21.488281 C 380.96875 21.488281 461.378906 101.867188 461.378906 200.675781 C 461.378906 253.15625 438.695312 300.433594 402.613281 333.238281 L 409.292969 355.972656 C 414.402344 351.78125 419.34375 347.304688 424.078125 342.570312 C 461.996094 304.667969 482.875 254.273438 482.875 200.675781 C 482.875 147.074219 461.996094 96.679688 424.078125 58.773438 C 386.15625 20.871094 335.746094 0 282.128906 0 C 228.503906 0 178.089844 20.871094 140.171875 58.773438 C 102.257812 96.679688 81.375 147.074219 81.375 200.675781 C 81.375 254.273438 102.257812 304.667969 140.171875 342.570312 C 176.316406 378.703125 223.824219 399.347656 274.640625 401.199219 L 268.210938 379.328125 " fill-opacity="1" fill-rule="nonzero"/><path fill="#ffffff" d="M 251.960938 324.015625 L 244.691406 299.292969 C 204.929688 284.164062 176.605469 245.664062 176.605469 200.675781 C 176.605469 142.511719 223.941406 95.1875 282.128906 95.1875 C 340.316406 95.1875 387.648438 142.511719 387.648438 200.675781 C 387.648438 217.101562 383.867188 232.667969 377.140625 246.546875 L 385.367188 274.550781 C 400.324219 253.726562 409.144531 228.210938 409.144531 200.675781 C 409.144531 130.664062 352.160156 73.699219 282.128906 73.699219 C 212.085938 73.699219 155.109375 130.664062 155.109375 200.675781 C 155.109375 260.296875 196.4375 310.445312 251.960938 324.015625 " fill-opacity="1" fill-rule="nonzero"/></svg>