<svg xmlns="http://www.w3.org/2000/svg" xmlns:xlink="http://www.w3.org/1999/xlink" width="500" zoomAndPan="magnify" viewBox="0 0 375 374.999991" height="500" preserveAspectRatio="xMidYMid meet" version="1.0"><defs><clipPath id="id1"><path d="M 0.824219 1.652344 L 374.324219 1.652344 L 374.324219 375 L 0.824219 375 Z M 0.824219 1.652344 " clip-rule="nonzero"/></clipPath><clipPath id="id2"><path d="M 110 89.605469 L 265 89.605469 L 265 274.105469 L 110 274.105469 Z M 110 89.605469 " clip-rule="nonzero"/></clipPath></defs><g clip-path="url(#id1)"><path fill="#4e991d" d="M 187.574219 1.652344 C 84.4375 1.652344 0.824219 85.261719 0.824219 188.402344 C 0.824219 291.542969 84.4375 375.152344 187.574219 375.152344 C 290.714844 375.152344 374.324219 291.542969 374.324219 188.402344 C 374.324219 85.261719 290.714844 1.652344 187.574219 1.652344 " fill-opacity="1" fill-rule="nonzero"/></g><g clip-path="url(#id2)"><path fill="#ffffff" d="M 119.644531 179.40625 C 121.523438 181.28125 124.121094 182.289062 126.867188 182.289062 C 129.609375 182.289062 132.210938 181.28125 134.089844 179.40625 L 173.089844 140.632812 L 173.089844 264.015625 C 173.089844 269.636719 177.421875 274.105469 183.054688 274.105469 L 191.578125 274.105469 C 197.210938 274.105469 201.976562 269.636719 201.976562 264.015625 L 201.976562 140.199219 L 241.265625 179.550781 C 243.144531 181.421875 245.597656 182.433594 248.34375 182.433594 C 251.089844 182.433594 253.542969 181.421875 255.421875 179.550781 L 261.488281 173.496094 C 265.386719 169.605469 265.386719 163.117188 261.488281 159.226562 L 194.753906 92.488281 C 192.878906 90.613281 190.277344 89.605469 187.53125 89.605469 C 184.789062 89.605469 182.332031 90.613281 180.457031 92.488281 L 113.578125 159.082031 C 109.675781 162.972656 109.675781 169.460938 113.578125 173.351562 Z M 119.644531 179.40625 " fill-opacity="1" fill-rule="nonzero"/></g></svg>